<mxfile host="app.diagrams.net" agent="Mozilla/5.0 (Windows NT 10.0; Win64; x64) AppleWebKit/537.36 (KHTML, like Gecko) Chrome/135.0.0.0 Safari/537.36 Edg/135.0.0.0" version="26.1.3">
  <diagram id="C5RBs43oDa-KdzZeNtuy" name="Page-1">
    <mxGraphModel dx="1042" dy="565" grid="1" gridSize="10" guides="1" tooltips="1" connect="1" arrows="1" fold="1" page="1" pageScale="1" pageWidth="827" pageHeight="1169" math="0" shadow="0">
      <root>
        <mxCell id="WIyWlLk6GJQsqaUBKTNV-0" />
        <mxCell id="WIyWlLk6GJQsqaUBKTNV-1" parent="WIyWlLk6GJQsqaUBKTNV-0" />
        <mxCell id="1wq6jjtfj3U2UPyOPcPt-0" value="Start" style="ellipse;whiteSpace=wrap;html=1;aspect=fixed;" vertex="1" parent="WIyWlLk6GJQsqaUBKTNV-1">
          <mxGeometry x="360" y="40" width="80" height="80" as="geometry" />
        </mxCell>
        <mxCell id="1wq6jjtfj3U2UPyOPcPt-26" style="edgeStyle=orthogonalEdgeStyle;rounded=0;orthogonalLoop=1;jettySize=auto;html=1;exitX=0.5;exitY=1;exitDx=0;exitDy=0;exitPerimeter=0;entryX=0.5;entryY=0;entryDx=0;entryDy=0;" edge="1" parent="WIyWlLk6GJQsqaUBKTNV-1" source="1wq6jjtfj3U2UPyOPcPt-1" target="1wq6jjtfj3U2UPyOPcPt-2">
          <mxGeometry relative="1" as="geometry" />
        </mxCell>
        <mxCell id="1wq6jjtfj3U2UPyOPcPt-1" value="Output Options" style="strokeWidth=2;html=1;shape=mxgraph.flowchart.display;whiteSpace=wrap;" vertex="1" parent="WIyWlLk6GJQsqaUBKTNV-1">
          <mxGeometry x="345" y="150" width="110" height="80" as="geometry" />
        </mxCell>
        <mxCell id="1wq6jjtfj3U2UPyOPcPt-2" value="Input Data" style="verticalLabelPosition=middle;verticalAlign=middle;html=1;shape=trapezoid;perimeter=trapezoidPerimeter;whiteSpace=wrap;size=0.23;arcSize=10;flipV=1;labelPosition=center;align=center;" vertex="1" parent="WIyWlLk6GJQsqaUBKTNV-1">
          <mxGeometry x="350" y="260" width="100" height="60" as="geometry" />
        </mxCell>
        <mxCell id="1wq6jjtfj3U2UPyOPcPt-28" style="edgeStyle=orthogonalEdgeStyle;rounded=0;orthogonalLoop=1;jettySize=auto;html=1;exitX=0.5;exitY=1;exitDx=0;exitDy=0;exitPerimeter=0;entryX=0.5;entryY=0;entryDx=0;entryDy=0;" edge="1" parent="WIyWlLk6GJQsqaUBKTNV-1" source="1wq6jjtfj3U2UPyOPcPt-3" target="1wq6jjtfj3U2UPyOPcPt-7">
          <mxGeometry relative="1" as="geometry" />
        </mxCell>
        <mxCell id="1wq6jjtfj3U2UPyOPcPt-31" value="YES" style="edgeLabel;html=1;align=center;verticalAlign=middle;resizable=0;points=[];" vertex="1" connectable="0" parent="1wq6jjtfj3U2UPyOPcPt-28">
          <mxGeometry x="-0.3067" y="-1" relative="1" as="geometry">
            <mxPoint as="offset" />
          </mxGeometry>
        </mxCell>
        <mxCell id="1wq6jjtfj3U2UPyOPcPt-29" style="edgeStyle=orthogonalEdgeStyle;rounded=0;orthogonalLoop=1;jettySize=auto;html=1;exitX=0;exitY=0.5;exitDx=0;exitDy=0;exitPerimeter=0;entryX=0.75;entryY=0;entryDx=0;entryDy=0;" edge="1" parent="WIyWlLk6GJQsqaUBKTNV-1" source="1wq6jjtfj3U2UPyOPcPt-3" target="1wq6jjtfj3U2UPyOPcPt-6">
          <mxGeometry relative="1" as="geometry" />
        </mxCell>
        <mxCell id="1wq6jjtfj3U2UPyOPcPt-30" value="YES" style="edgeLabel;html=1;align=center;verticalAlign=middle;resizable=0;points=[];" vertex="1" connectable="0" parent="1wq6jjtfj3U2UPyOPcPt-29">
          <mxGeometry x="0.5442" y="-1" relative="1" as="geometry">
            <mxPoint as="offset" />
          </mxGeometry>
        </mxCell>
        <mxCell id="1wq6jjtfj3U2UPyOPcPt-32" style="edgeStyle=orthogonalEdgeStyle;rounded=0;orthogonalLoop=1;jettySize=auto;html=1;exitX=1;exitY=0.5;exitDx=0;exitDy=0;exitPerimeter=0;entryX=0.25;entryY=0;entryDx=0;entryDy=0;" edge="1" parent="WIyWlLk6GJQsqaUBKTNV-1" source="1wq6jjtfj3U2UPyOPcPt-3" target="1wq6jjtfj3U2UPyOPcPt-8">
          <mxGeometry relative="1" as="geometry" />
        </mxCell>
        <mxCell id="1wq6jjtfj3U2UPyOPcPt-33" value="YES" style="edgeLabel;html=1;align=center;verticalAlign=middle;resizable=0;points=[];" vertex="1" connectable="0" parent="1wq6jjtfj3U2UPyOPcPt-32">
          <mxGeometry x="0.5474" y="-1" relative="1" as="geometry">
            <mxPoint as="offset" />
          </mxGeometry>
        </mxCell>
        <mxCell id="1wq6jjtfj3U2UPyOPcPt-3" value="Valid Options?" style="strokeWidth=2;html=1;shape=mxgraph.flowchart.decision;whiteSpace=wrap;" vertex="1" parent="WIyWlLk6GJQsqaUBKTNV-1">
          <mxGeometry x="350" y="340" width="100" height="100" as="geometry" />
        </mxCell>
        <mxCell id="1wq6jjtfj3U2UPyOPcPt-6" value="Option 1:&amp;nbsp;&lt;div&gt;Kelvin&amp;nbsp;&lt;/div&gt;" style="rounded=1;whiteSpace=wrap;html=1;absoluteArcSize=1;arcSize=14;strokeWidth=2;" vertex="1" parent="WIyWlLk6GJQsqaUBKTNV-1">
          <mxGeometry x="180" y="470" width="100" height="100" as="geometry" />
        </mxCell>
        <mxCell id="1wq6jjtfj3U2UPyOPcPt-7" value="Option 2:&lt;div&gt;&amp;nbsp;Celsius&lt;/div&gt;" style="rounded=1;whiteSpace=wrap;html=1;absoluteArcSize=1;arcSize=14;strokeWidth=2;" vertex="1" parent="WIyWlLk6GJQsqaUBKTNV-1">
          <mxGeometry x="350" y="470" width="100" height="100" as="geometry" />
        </mxCell>
        <mxCell id="1wq6jjtfj3U2UPyOPcPt-8" value="Option 3: Fahrenheit" style="rounded=1;whiteSpace=wrap;html=1;absoluteArcSize=1;arcSize=14;strokeWidth=2;" vertex="1" parent="WIyWlLk6GJQsqaUBKTNV-1">
          <mxGeometry x="520" y="470" width="100" height="100" as="geometry" />
        </mxCell>
        <mxCell id="1wq6jjtfj3U2UPyOPcPt-37" style="edgeStyle=orthogonalEdgeStyle;rounded=0;orthogonalLoop=1;jettySize=auto;html=1;exitX=0.5;exitY=1;exitDx=0;exitDy=0;exitPerimeter=0;" edge="1" parent="WIyWlLk6GJQsqaUBKTNV-1" source="1wq6jjtfj3U2UPyOPcPt-13" target="1wq6jjtfj3U2UPyOPcPt-16">
          <mxGeometry relative="1" as="geometry">
            <Array as="points">
              <mxPoint x="230" y="700" />
              <mxPoint x="400" y="700" />
            </Array>
          </mxGeometry>
        </mxCell>
        <mxCell id="1wq6jjtfj3U2UPyOPcPt-13" value="Convert&lt;div&gt;C or F?&lt;/div&gt;" style="strokeWidth=2;html=1;shape=mxgraph.flowchart.decision;whiteSpace=wrap;" vertex="1" parent="WIyWlLk6GJQsqaUBKTNV-1">
          <mxGeometry x="180" y="590" width="100" height="100" as="geometry" />
        </mxCell>
        <mxCell id="1wq6jjtfj3U2UPyOPcPt-38" style="edgeStyle=orthogonalEdgeStyle;rounded=0;orthogonalLoop=1;jettySize=auto;html=1;exitX=0.5;exitY=1;exitDx=0;exitDy=0;exitPerimeter=0;" edge="1" parent="WIyWlLk6GJQsqaUBKTNV-1" source="1wq6jjtfj3U2UPyOPcPt-14">
          <mxGeometry relative="1" as="geometry">
            <mxPoint x="400" y="710" as="targetPoint" />
          </mxGeometry>
        </mxCell>
        <mxCell id="1wq6jjtfj3U2UPyOPcPt-14" value="Convert&lt;div&gt;K or F?&lt;/div&gt;" style="strokeWidth=2;html=1;shape=mxgraph.flowchart.decision;whiteSpace=wrap;" vertex="1" parent="WIyWlLk6GJQsqaUBKTNV-1">
          <mxGeometry x="350" y="590" width="100" height="100" as="geometry" />
        </mxCell>
        <mxCell id="1wq6jjtfj3U2UPyOPcPt-40" style="edgeStyle=orthogonalEdgeStyle;rounded=0;orthogonalLoop=1;jettySize=auto;html=1;exitX=0.5;exitY=1;exitDx=0;exitDy=0;exitPerimeter=0;" edge="1" parent="WIyWlLk6GJQsqaUBKTNV-1" source="1wq6jjtfj3U2UPyOPcPt-15" target="1wq6jjtfj3U2UPyOPcPt-16">
          <mxGeometry relative="1" as="geometry">
            <Array as="points">
              <mxPoint x="570" y="700" />
              <mxPoint x="400" y="700" />
            </Array>
          </mxGeometry>
        </mxCell>
        <mxCell id="1wq6jjtfj3U2UPyOPcPt-15" value="Convert&amp;nbsp;&lt;div&gt;K or C?&lt;/div&gt;" style="strokeWidth=2;html=1;shape=mxgraph.flowchart.decision;whiteSpace=wrap;" vertex="1" parent="WIyWlLk6GJQsqaUBKTNV-1">
          <mxGeometry x="520" y="590" width="100" height="100" as="geometry" />
        </mxCell>
        <mxCell id="1wq6jjtfj3U2UPyOPcPt-16" value="Input Data" style="verticalLabelPosition=middle;verticalAlign=middle;html=1;shape=trapezoid;perimeter=trapezoidPerimeter;whiteSpace=wrap;size=0.23;arcSize=10;flipV=1;labelPosition=center;align=center;" vertex="1" parent="WIyWlLk6GJQsqaUBKTNV-1">
          <mxGeometry x="350" y="710" width="100" height="60" as="geometry" />
        </mxCell>
        <mxCell id="1wq6jjtfj3U2UPyOPcPt-42" style="edgeStyle=orthogonalEdgeStyle;rounded=0;orthogonalLoop=1;jettySize=auto;html=1;exitX=0.5;exitY=1;exitDx=0;exitDy=0;exitPerimeter=0;entryX=0.5;entryY=0;entryDx=0;entryDy=0;" edge="1" parent="WIyWlLk6GJQsqaUBKTNV-1" source="1wq6jjtfj3U2UPyOPcPt-17" target="1wq6jjtfj3U2UPyOPcPt-18">
          <mxGeometry relative="1" as="geometry" />
        </mxCell>
        <mxCell id="1wq6jjtfj3U2UPyOPcPt-17" value="Valid Options?" style="strokeWidth=2;html=1;shape=mxgraph.flowchart.decision;whiteSpace=wrap;" vertex="1" parent="WIyWlLk6GJQsqaUBKTNV-1">
          <mxGeometry x="350" y="790" width="100" height="100" as="geometry" />
        </mxCell>
        <mxCell id="1wq6jjtfj3U2UPyOPcPt-44" style="edgeStyle=orthogonalEdgeStyle;rounded=0;orthogonalLoop=1;jettySize=auto;html=1;exitX=0.5;exitY=1;exitDx=0;exitDy=0;" edge="1" parent="WIyWlLk6GJQsqaUBKTNV-1" source="1wq6jjtfj3U2UPyOPcPt-18" target="1wq6jjtfj3U2UPyOPcPt-19">
          <mxGeometry relative="1" as="geometry" />
        </mxCell>
        <mxCell id="1wq6jjtfj3U2UPyOPcPt-18" value="Process Conversion" style="rounded=1;whiteSpace=wrap;html=1;absoluteArcSize=1;arcSize=14;strokeWidth=2;" vertex="1" parent="WIyWlLk6GJQsqaUBKTNV-1">
          <mxGeometry x="350" y="910" width="100" height="100" as="geometry" />
        </mxCell>
        <mxCell id="1wq6jjtfj3U2UPyOPcPt-19" value="Display Result" style="strokeWidth=2;html=1;shape=mxgraph.flowchart.display;whiteSpace=wrap;" vertex="1" parent="WIyWlLk6GJQsqaUBKTNV-1">
          <mxGeometry x="350" y="1030" width="100" height="60" as="geometry" />
        </mxCell>
        <mxCell id="1wq6jjtfj3U2UPyOPcPt-55" style="edgeStyle=orthogonalEdgeStyle;rounded=0;orthogonalLoop=1;jettySize=auto;html=1;exitX=0;exitY=0.5;exitDx=0;exitDy=0;exitPerimeter=0;entryX=0;entryY=0.5;entryDx=0;entryDy=0;entryPerimeter=0;dashed=1;" edge="1" parent="WIyWlLk6GJQsqaUBKTNV-1" source="1wq6jjtfj3U2UPyOPcPt-20" target="1wq6jjtfj3U2UPyOPcPt-13">
          <mxGeometry relative="1" as="geometry">
            <mxPoint x="130" y="640" as="targetPoint" />
          </mxGeometry>
        </mxCell>
        <mxCell id="1wq6jjtfj3U2UPyOPcPt-20" value="Output&amp;nbsp;&lt;div&gt;Error Message&lt;/div&gt;" style="strokeWidth=2;html=1;shape=mxgraph.flowchart.display;whiteSpace=wrap;" vertex="1" parent="WIyWlLk6GJQsqaUBKTNV-1">
          <mxGeometry x="160" y="805" width="110" height="70" as="geometry" />
        </mxCell>
        <mxCell id="1wq6jjtfj3U2UPyOPcPt-23" style="edgeStyle=orthogonalEdgeStyle;rounded=0;orthogonalLoop=1;jettySize=auto;html=1;exitX=0.5;exitY=0;exitDx=0;exitDy=0;exitPerimeter=0;entryX=0;entryY=0.5;entryDx=0;entryDy=0;" edge="1" parent="WIyWlLk6GJQsqaUBKTNV-1" source="1wq6jjtfj3U2UPyOPcPt-21" target="1wq6jjtfj3U2UPyOPcPt-0">
          <mxGeometry relative="1" as="geometry" />
        </mxCell>
        <mxCell id="1wq6jjtfj3U2UPyOPcPt-21" value="Output&amp;nbsp;&lt;div&gt;Error Message&lt;/div&gt;" style="strokeWidth=2;html=1;shape=mxgraph.flowchart.display;whiteSpace=wrap;" vertex="1" parent="WIyWlLk6GJQsqaUBKTNV-1">
          <mxGeometry x="130" y="210" width="110" height="70" as="geometry" />
        </mxCell>
        <mxCell id="1wq6jjtfj3U2UPyOPcPt-22" style="edgeStyle=orthogonalEdgeStyle;rounded=0;orthogonalLoop=1;jettySize=auto;html=1;exitX=0;exitY=0.5;exitDx=0;exitDy=0;exitPerimeter=0;entryX=0.5;entryY=1;entryDx=0;entryDy=0;entryPerimeter=0;" edge="1" parent="WIyWlLk6GJQsqaUBKTNV-1" source="1wq6jjtfj3U2UPyOPcPt-3" target="1wq6jjtfj3U2UPyOPcPt-21">
          <mxGeometry relative="1" as="geometry" />
        </mxCell>
        <mxCell id="1wq6jjtfj3U2UPyOPcPt-24" value="NO" style="edgeLabel;html=1;align=center;verticalAlign=middle;resizable=0;points=[];fontStyle=1" vertex="1" connectable="0" parent="1wq6jjtfj3U2UPyOPcPt-22">
          <mxGeometry x="0.4147" y="2" relative="1" as="geometry">
            <mxPoint as="offset" />
          </mxGeometry>
        </mxCell>
        <mxCell id="1wq6jjtfj3U2UPyOPcPt-25" style="edgeStyle=orthogonalEdgeStyle;rounded=0;orthogonalLoop=1;jettySize=auto;html=1;exitX=0.5;exitY=1;exitDx=0;exitDy=0;entryX=0.5;entryY=0;entryDx=0;entryDy=0;entryPerimeter=0;" edge="1" parent="WIyWlLk6GJQsqaUBKTNV-1" source="1wq6jjtfj3U2UPyOPcPt-0" target="1wq6jjtfj3U2UPyOPcPt-1">
          <mxGeometry relative="1" as="geometry" />
        </mxCell>
        <mxCell id="1wq6jjtfj3U2UPyOPcPt-27" style="edgeStyle=orthogonalEdgeStyle;rounded=0;orthogonalLoop=1;jettySize=auto;html=1;exitX=0.5;exitY=1;exitDx=0;exitDy=0;entryX=0.5;entryY=0;entryDx=0;entryDy=0;entryPerimeter=0;" edge="1" parent="WIyWlLk6GJQsqaUBKTNV-1" source="1wq6jjtfj3U2UPyOPcPt-2" target="1wq6jjtfj3U2UPyOPcPt-3">
          <mxGeometry relative="1" as="geometry" />
        </mxCell>
        <mxCell id="1wq6jjtfj3U2UPyOPcPt-34" style="edgeStyle=orthogonalEdgeStyle;rounded=0;orthogonalLoop=1;jettySize=auto;html=1;exitX=0.5;exitY=1;exitDx=0;exitDy=0;entryX=0.5;entryY=0;entryDx=0;entryDy=0;entryPerimeter=0;" edge="1" parent="WIyWlLk6GJQsqaUBKTNV-1" source="1wq6jjtfj3U2UPyOPcPt-6" target="1wq6jjtfj3U2UPyOPcPt-13">
          <mxGeometry relative="1" as="geometry" />
        </mxCell>
        <mxCell id="1wq6jjtfj3U2UPyOPcPt-35" style="edgeStyle=orthogonalEdgeStyle;rounded=0;orthogonalLoop=1;jettySize=auto;html=1;exitX=0.5;exitY=1;exitDx=0;exitDy=0;entryX=0.5;entryY=0;entryDx=0;entryDy=0;entryPerimeter=0;" edge="1" parent="WIyWlLk6GJQsqaUBKTNV-1" source="1wq6jjtfj3U2UPyOPcPt-7" target="1wq6jjtfj3U2UPyOPcPt-14">
          <mxGeometry relative="1" as="geometry" />
        </mxCell>
        <mxCell id="1wq6jjtfj3U2UPyOPcPt-36" style="edgeStyle=orthogonalEdgeStyle;rounded=0;orthogonalLoop=1;jettySize=auto;html=1;exitX=0.5;exitY=1;exitDx=0;exitDy=0;entryX=0.5;entryY=0;entryDx=0;entryDy=0;entryPerimeter=0;" edge="1" parent="WIyWlLk6GJQsqaUBKTNV-1" source="1wq6jjtfj3U2UPyOPcPt-8" target="1wq6jjtfj3U2UPyOPcPt-15">
          <mxGeometry relative="1" as="geometry" />
        </mxCell>
        <mxCell id="1wq6jjtfj3U2UPyOPcPt-41" style="edgeStyle=orthogonalEdgeStyle;rounded=0;orthogonalLoop=1;jettySize=auto;html=1;exitX=0.5;exitY=1;exitDx=0;exitDy=0;entryX=0.5;entryY=0;entryDx=0;entryDy=0;entryPerimeter=0;" edge="1" parent="WIyWlLk6GJQsqaUBKTNV-1" source="1wq6jjtfj3U2UPyOPcPt-16" target="1wq6jjtfj3U2UPyOPcPt-17">
          <mxGeometry relative="1" as="geometry" />
        </mxCell>
        <mxCell id="1wq6jjtfj3U2UPyOPcPt-45" value="Exit Program" style="strokeWidth=2;html=1;shape=mxgraph.flowchart.terminator;whiteSpace=wrap;" vertex="1" parent="WIyWlLk6GJQsqaUBKTNV-1">
          <mxGeometry x="660" y="1090" width="100" height="60" as="geometry" />
        </mxCell>
        <mxCell id="1wq6jjtfj3U2UPyOPcPt-46" value="Restart&amp;nbsp;&lt;div&gt;Converter&lt;/div&gt;" style="strokeWidth=2;html=1;shape=mxgraph.flowchart.decision;whiteSpace=wrap;" vertex="1" parent="WIyWlLk6GJQsqaUBKTNV-1">
          <mxGeometry x="530" y="1010" width="100" height="100" as="geometry" />
        </mxCell>
        <mxCell id="1wq6jjtfj3U2UPyOPcPt-47" style="edgeStyle=orthogonalEdgeStyle;rounded=0;orthogonalLoop=1;jettySize=auto;html=1;exitX=1;exitY=0.5;exitDx=0;exitDy=0;exitPerimeter=0;entryX=1;entryY=0.5;entryDx=0;entryDy=0;dashed=1;" edge="1" parent="WIyWlLk6GJQsqaUBKTNV-1" source="1wq6jjtfj3U2UPyOPcPt-46" target="1wq6jjtfj3U2UPyOPcPt-0">
          <mxGeometry relative="1" as="geometry">
            <mxPoint x="710.4" y="1130" as="sourcePoint" />
            <mxPoint x="480" y="50" as="targetPoint" />
          </mxGeometry>
        </mxCell>
        <mxCell id="1wq6jjtfj3U2UPyOPcPt-52" value="YES" style="edgeLabel;html=1;align=center;verticalAlign=middle;resizable=0;points=[];" vertex="1" connectable="0" parent="1wq6jjtfj3U2UPyOPcPt-47">
          <mxGeometry x="-0.8731" y="-1" relative="1" as="geometry">
            <mxPoint as="offset" />
          </mxGeometry>
        </mxCell>
        <mxCell id="1wq6jjtfj3U2UPyOPcPt-50" style="edgeStyle=orthogonalEdgeStyle;rounded=0;orthogonalLoop=1;jettySize=auto;html=1;exitX=0.5;exitY=1;exitDx=0;exitDy=0;exitPerimeter=0;entryX=0;entryY=0.667;entryDx=0;entryDy=0;entryPerimeter=0;" edge="1" parent="WIyWlLk6GJQsqaUBKTNV-1" source="1wq6jjtfj3U2UPyOPcPt-46" target="1wq6jjtfj3U2UPyOPcPt-45">
          <mxGeometry relative="1" as="geometry" />
        </mxCell>
        <mxCell id="1wq6jjtfj3U2UPyOPcPt-51" value="NO" style="edgeLabel;html=1;align=center;verticalAlign=middle;resizable=0;points=[];" vertex="1" connectable="0" parent="1wq6jjtfj3U2UPyOPcPt-50">
          <mxGeometry x="-0.33" y="2" relative="1" as="geometry">
            <mxPoint x="13" as="offset" />
          </mxGeometry>
        </mxCell>
        <mxCell id="1wq6jjtfj3U2UPyOPcPt-53" style="edgeStyle=orthogonalEdgeStyle;rounded=0;orthogonalLoop=1;jettySize=auto;html=1;exitX=1;exitY=0.5;exitDx=0;exitDy=0;exitPerimeter=0;entryX=0;entryY=0.5;entryDx=0;entryDy=0;entryPerimeter=0;" edge="1" parent="WIyWlLk6GJQsqaUBKTNV-1" source="1wq6jjtfj3U2UPyOPcPt-19" target="1wq6jjtfj3U2UPyOPcPt-46">
          <mxGeometry relative="1" as="geometry" />
        </mxCell>
        <mxCell id="1wq6jjtfj3U2UPyOPcPt-54" style="edgeStyle=orthogonalEdgeStyle;rounded=0;orthogonalLoop=1;jettySize=auto;html=1;exitX=0;exitY=0.5;exitDx=0;exitDy=0;exitPerimeter=0;entryX=1;entryY=0.5;entryDx=0;entryDy=0;entryPerimeter=0;" edge="1" parent="WIyWlLk6GJQsqaUBKTNV-1" source="1wq6jjtfj3U2UPyOPcPt-17" target="1wq6jjtfj3U2UPyOPcPt-20">
          <mxGeometry relative="1" as="geometry" />
        </mxCell>
        <mxCell id="1wq6jjtfj3U2UPyOPcPt-56" style="edgeStyle=orthogonalEdgeStyle;rounded=0;orthogonalLoop=1;jettySize=auto;html=1;exitX=1;exitY=0.5;exitDx=0;exitDy=0;exitPerimeter=0;entryX=0;entryY=0.5;entryDx=0;entryDy=0;entryPerimeter=0;dashed=1;" edge="1" parent="WIyWlLk6GJQsqaUBKTNV-1" source="1wq6jjtfj3U2UPyOPcPt-13" target="1wq6jjtfj3U2UPyOPcPt-14">
          <mxGeometry relative="1" as="geometry" />
        </mxCell>
        <mxCell id="1wq6jjtfj3U2UPyOPcPt-57" style="edgeStyle=orthogonalEdgeStyle;rounded=0;orthogonalLoop=1;jettySize=auto;html=1;exitX=1;exitY=0.5;exitDx=0;exitDy=0;exitPerimeter=0;entryX=0;entryY=0.5;entryDx=0;entryDy=0;entryPerimeter=0;dashed=1;" edge="1" parent="WIyWlLk6GJQsqaUBKTNV-1" source="1wq6jjtfj3U2UPyOPcPt-14" target="1wq6jjtfj3U2UPyOPcPt-15">
          <mxGeometry relative="1" as="geometry" />
        </mxCell>
      </root>
    </mxGraphModel>
  </diagram>
</mxfile>
